<svg xmlns="http://www.w3.org/2000/svg" width="59.812" height="65.312" viewBox="0 0 59.812 65.312">
  <defs>
    <style>
      .cls-1 {
        fill-rule: evenodd;
      }
    </style>
  </defs>
  <path id="favicon.svg" class="cls-1" d="M706.028,390.7a8.88,8.88,0,0,0,5.4-1.3,1.381,1.381,0,0,0,.72-1.729,10.018,10.018,0,0,0-1.728-3.384c-2.448-2.592-4.9-5.112-7.417-7.561a19.441,19.441,0,0,0-2.808-1.944,1.221,1.221,0,0,0-.72,0,0.631,0.631,0,0,0,.5.432,36.8,36.8,0,0,1,8.137,8.569,2.084,2.084,0,0,1,0,2.232,3.993,3.993,0,0,1-2.3,1.368,13.521,13.521,0,0,1-8.713-1.44,6.37,6.37,0,0,1-1.8-1.3,2.843,2.843,0,0,1-.864-2.016,11.917,11.917,0,0,1,.216-2.3c0.576-1.944,1.08-3.889,1.728-5.833,0.576-2.232,1.152-4.464,1.584-6.7a2.329,2.329,0,0,0-.936-2.737,5.215,5.215,0,0,0-6.121-.576,0.924,0.924,0,0,1-.72.288,2.22,2.22,0,0,1,.072-0.72c0.288-2.3.5-4.536,0.648-6.768a3.479,3.479,0,0,0-1.944-3.168,3.283,3.283,0,0,0-3.6.288,3.364,3.364,0,0,0-1.008,1.008,3.9,3.9,0,0,0,1.3.72,0.777,0.777,0,0,1,.72,1.008c-0.288,3.384-.72,6.7-1.08,10.009a2.184,2.184,0,0,1-1.08,1.8c-1.944,1.224-3.817,2.52-5.689,3.816a4.082,4.082,0,0,0-.576.936c0.36,0.072.648,0.144,1.08,0.216a0.544,0.544,0,0,0,.576-0.072c1.368-.576,2.737-1.152,4.033-1.656a0.957,0.957,0,0,1,.576-0.216v0.576l-1.44,4.753a0.961,0.961,0,0,1-1.008.648,7.4,7.4,0,0,0-2.521,0,3.164,3.164,0,0,0-1.3.864,6.837,6.837,0,0,0,1.224.72,1.1,1.1,0,0,0,.5.36,5.407,5.407,0,0,1,1.3.5l-1.152.576c-3.744,1.656-7.488,3.312-11.233,5.04a1.068,1.068,0,0,1-.5.072c0.072-.216.144-0.36,0.216-0.576a22.991,22.991,0,0,1,3.169-3.312c1.44-1.224,2.88-2.3,4.392-3.384a2.889,2.889,0,0,0,.216-1.08,4.723,4.723,0,0,0-5.832-1.873c-0.937.432-1.873,0.792-2.809,1.225-3.528,1.656-6.984,3.312-10.585,4.9a1.779,1.779,0,0,1-.648.288,0.778,0.778,0,0,0,.216-0.5,1.988,1.988,0,0,0-.576-0.432,1.479,1.479,0,0,0-.792,0,10.414,10.414,0,0,0-1.584,1.512,2.089,2.089,0,0,0-.144,1.728,1.757,1.757,0,0,0,1.3,1.152,1.239,1.239,0,0,0,.864-0.144c2.376-1.368,4.9-2.808,7.345-4.248,1.8-.936,3.672-1.8,5.544-2.736a4.157,4.157,0,0,1,3.241-1.08h0.576a3.131,3.131,0,0,1-.288.5c-1.008,1.08-2.016,2.16-3.025,3.312a3.115,3.115,0,0,1-3.456,1.08c-0.576-.144-0.792.072-0.72,0.72a22.7,22.7,0,0,1,.288,3.816,0.728,0.728,0,0,1-.576.792,86.812,86.812,0,0,1-7.921,3.673,1.641,1.641,0,0,1-.792.216,2.94,2.94,0,0,0-1.368-.072,2.542,2.542,0,0,0-1.08,1.224,0.777,0.777,0,0,0,0,.792,4.48,4.48,0,0,0,1.008,1.368,3.957,3.957,0,0,0,.648.5,1,1,0,0,0,.864.216,10.705,10.705,0,0,0,2.737-1.656,1.357,1.357,0,0,1,2.16.216c0.5,0.5,1.008,1.08,1.44,1.584l2.376,2.376a0.839,0.839,0,0,0,1.368-.144,44.686,44.686,0,0,0,1.008-4.464c0-.72.072-1.512,0.072-2.3a1.8,1.8,0,0,1,.576-1.3c1.728-.936,3.457-1.873,5.185-2.665a13.974,13.974,0,0,0,2.088-1.512c1.944-1.584,3.96-3.168,5.976-4.752,0.216-.144.433-0.216,0.649-0.36a7.472,7.472,0,0,0-.216.864A63.277,63.277,0,0,1,669.3,401.215a0.818,0.818,0,0,1-.216.576l0.577-.432c2.16-2.089,4.32-4.249,6.408-6.409a26.8,26.8,0,0,0,5.617-7.993c0.576-1.152,1.152-2.3,1.8-3.456,0.144-.576.432-0.648,0.792-0.144q1.728,1.3,3.672,2.592a2.4,2.4,0,0,0,1.8-.5,2.008,2.008,0,0,0,.072-1.584,7.325,7.325,0,0,0-3.672-3.96,1.29,1.29,0,0,1-.5-1.8c1.008-2.665,1.944-5.329,2.808-8.137a1.992,1.992,0,0,1,1.3-1.44,27.154,27.154,0,0,0,3.313-1.44c0.576-.36.864-0.144,0.792,0.576a39.712,39.712,0,0,1-2.377,9.577c-1.512,3.528-.792,6.48,2.233,8.928a19.848,19.848,0,0,0,5.688,3.385A15.891,15.891,0,0,0,706.028,390.7Zm-41.476,1.368a1.412,1.412,0,0,1-.36,1.44c-0.432.36-.864,0.72-1.224,1.008,0,0.072,0,.072-0.072,0a0.54,0.54,0,0,1-.36-0.072,5.959,5.959,0,0,0-1.08-.792c-1.008-.576-0.936-1.008.144-1.368a9.667,9.667,0,0,0,2.16-.864C664.48,391.062,664.768,391.278,664.552,392.07Zm24.338,15.265a0.265,0.265,0,0,1-.072.216h-3.1a0.364,0.364,0,0,1-.5-0.36,0.924,0.924,0,0,1,.288-0.72v-0.5q0.108-2.808,0-5.616a1.461,1.461,0,0,1,1.368-1.729c1.872-.5,3.744-0.936,5.544-1.44,0.865-.288.937-0.72,0.289-1.3a18.013,18.013,0,0,0-2.161-1.368,2.812,2.812,0,0,0-3.456.216,3.181,3.181,0,0,1-1.152.432,2.4,2.4,0,0,1-.432-0.216v-1.08a4.437,4.437,0,0,0-.072-1.944,2.482,2.482,0,0,0-1.224-1.584,4.185,4.185,0,0,0-1.8-.648,0.818,0.818,0,0,0-.648-0.144,1.377,1.377,0,0,0-.937.144,1.29,1.29,0,0,0-.288,1.008,4.059,4.059,0,0,1,.288.864c-0.216,2.016-.36,3.96-0.648,5.9a1.283,1.283,0,0,1-.72,1.152l-9.72,4.1a7.546,7.546,0,0,0-.865.72,1.984,1.984,0,0,0,1.081.576,9.3,9.3,0,0,0,3.456,0c2.016-.576,3.96-1.3,5.9-2.016,0.5-.288.72-0.144,0.576,0.432-0.144,1.224-.36,2.376-0.576,3.528a3.537,3.537,0,0,1-3.672,3.1,1.068,1.068,0,0,1-.5.072c-2.808.864-5.616,1.8-8.281,2.737a42.081,42.081,0,0,1-8.424,1.944,1.343,1.343,0,0,0-.577.5,0.642,0.642,0,0,0,.361.576,9.376,9.376,0,0,0,3.888,2.16,2.455,2.455,0,0,0,2.3-.5,0.482,0.482,0,0,1,.5-0.288c2.16-.936,4.248-1.8,6.409-2.592a50.8,50.8,0,0,1,17.641-2.737,11.4,11.4,0,0,1,2.736.36,18.816,18.816,0,0,0,2.809.433,23.51,23.51,0,0,1,6.408,1.224c0.936,0.288,1.872.576,2.808,0.792a3.447,3.447,0,0,0,2.737-.576,0.6,0.6,0,0,0,.288-0.936,4.985,4.985,0,0,0-2.232-2.161c-1.009-.432-1.945-0.864-2.953-1.224a6.537,6.537,0,0,0-1.656-.216,13.982,13.982,0,0,1-1.728-.144C695.083,408.127,691.986,407.767,688.89,407.335Zm-21.674-41.547a37.979,37.979,0,0,1,3.673-1.369,7.011,7.011,0,0,1,2.448.432c0,0.072.072,0.216,0.072,0.288a1.023,1.023,0,0,1-.144.433,36.6,36.6,0,0,1-3.1,2.736,57.986,57.986,0,0,1-4.969,3.6,2.887,2.887,0,0,0-1.08,1.008,1.617,1.617,0,0,0-.216,1.584,16.235,16.235,0,0,1-1.728-2.592,2.6,2.6,0,0,1,.072-1.944c0.936-.936,1.872-1.872,2.88-2.808l1.008-.792c-1.656,1.152-3.384,2.3-5.112,3.456a0.957,0.957,0,0,1-.5.216,0.622,0.622,0,0,1,.216-0.432,22.581,22.581,0,0,0,2.448-2.88,20.845,20.845,0,0,1,5.256-5.4,3.807,3.807,0,0,1,1.729-.792q4.212-.324,8.424-0.432a1.026,1.026,0,0,0,.864-0.432,0.859,0.859,0,0,0-.144-0.936,2.858,2.858,0,0,0-2.808-1.152,25.554,25.554,0,0,0-3.384.432q-0.972.216-.864-0.648a3.268,3.268,0,0,0-.576-1.656,24.662,24.662,0,0,0-3.817-3.385,2.706,2.706,0,0,0-3.1,0c-0.936.36-1.008,0.864-.072,1.441a5.951,5.951,0,0,0,.936.5,1.645,1.645,0,0,1,.864,2.16,10.2,10.2,0,0,1-.576,1.3,10.313,10.313,0,0,1-4.9,3.672,29.224,29.224,0,0,0-4.033,1.872,14.225,14.225,0,0,1-4.248,1.512c-0.072.072-.144,0.072-0.216,0.144a0.653,0.653,0,0,0,0,.721c2.16,1.584,4.248,1.512,6.121-.288a9.14,9.14,0,0,1,3.168-2.017c1.224-.5,2.448-0.936,3.528-1.44h0.288a0.433,0.433,0,0,1-.072.288c-2.16,2.232-4.248,4.537-6.264,6.841a1.367,1.367,0,0,0-.576,1.08,6.362,6.362,0,0,0,3.168,5.112c1.08,0.648,1.728.432,1.944-.792q0.864,2.052,3.024,1.08a0.251,0.251,0,0,1,.144-0.072,3.688,3.688,0,0,1,1.944-.648,2.194,2.194,0,0,0,1.873-.936,1.12,1.12,0,0,0,.432-0.576,0.547,0.547,0,0,0-.36-0.648c-0.5-.36-0.5-0.648.072-0.936,1.728-1.152,3.528-2.232,5.328-3.312a1.338,1.338,0,0,1,.936-0.5c1.08-.144,1.3-0.72.792-1.584a5.868,5.868,0,0,0-3.528-2.881,6.478,6.478,0,0,0-3.888.288A14.721,14.721,0,0,0,667.216,365.788Z" transform="translate(-652.438 -351.844)"/>
</svg>
