<svg xmlns="http://www.w3.org/2000/svg" width="145.562" height="65.312" viewBox="0 0 145.562 65.312">
  <defs>
    <style>
      .cls-1 {
        fill: #fff;
        fill-rule: evenodd;
      }
    </style>
  </defs>
  <path id="logo_white.svg" class="cls-1" d="M500.067,486.021a4.192,4.192,0,0,1,1.368.216,1.111,1.111,0,0,1,.72,1.008,8.1,8.1,0,0,1,.072,2.952,47.807,47.807,0,0,1-3.888,14.113,55.222,55.222,0,0,1-7.561,12.673c-1.008,1.368-2.16,2.664-3.24,3.961a1.216,1.216,0,0,0-.144.36,1.633,1.633,0,0,1,.288-0.072l7.344-5.617c0.288-.144.576-0.288,0.936-0.432a1.728,1.728,0,0,0,.864-0.5,21.646,21.646,0,0,0,3.961-4.176,45.132,45.132,0,0,0,6.552-13.178,28.282,28.282,0,0,0,1.152-5.976,9.386,9.386,0,0,0-.072-2.448,4.079,4.079,0,0,0-1.08-2.232,41.534,41.534,0,0,0-5.112-4.321,2.986,2.986,0,0,0-2.448-.648,12.924,12.924,0,0,0-4.321,1.224,31.327,31.327,0,0,0-5.4,3.745c-1.728,1.44-3.384,2.952-5.041,4.392l-8.712,7.921a8.381,8.381,0,0,1-1.08.432h-0.36a0.3,0.3,0,0,0-.288.216,1.652,1.652,0,0,0-.072,1.008,2.593,2.593,0,0,0,2.664.936,33.7,33.7,0,0,0,3.456-1.3,6.26,6.26,0,0,0,2.664-2.448,2.676,2.676,0,0,1,1.224-1.3c3.745-3.024,7.489-6.048,11.233-9A6.727,6.727,0,0,1,500.067,486.021Zm-3.745-9v0.216c1.585-.576,3.169-1.152,4.681-1.728a1.29,1.29,0,0,0,.288-1.008,3.728,3.728,0,0,0-1.584-2.737c-1.224-.864-2.449-1.728-3.673-2.52a0.813,0.813,0,0,0-.792.216,7.752,7.752,0,0,1-3.24,1.224,31.239,31.239,0,0,1-3.672,0,1.826,1.826,0,0,1-.864-0.144c-0.648-.5-1.08-0.36-1.44.36a1.623,1.623,0,0,0-.145,1.512,10.6,10.6,0,0,0,4.537,3.961c0.5,0.144.648,0.36,0.36,0.792a0.482,0.482,0,0,0-.216.576l0.5-.144a6.652,6.652,0,0,1,1.944-.576A25.419,25.419,0,0,1,496.322,477.02Zm40.32-2.088a8.382,8.382,0,0,0-5.472-7.921,3.776,3.776,0,0,0-1.224-.144,3.58,3.58,0,0,0-.072,1.512,4.576,4.576,0,0,0,.432,1.3,5.666,5.666,0,0,1,.288,1.44,24.3,24.3,0,0,1-.072,6.049c-0.5,5.112-1.08,10.225-1.656,15.337a31.232,31.232,0,0,0,2.232,14.545,34.132,34.132,0,0,0,8.5,12.169,6.126,6.126,0,0,0,1.873.792,1.658,1.658,0,0,1,.648.216,1.49,1.49,0,0,1,.432.289,1.617,1.617,0,0,0,.216-0.721A1.156,1.156,0,0,0,542.4,519c-1.872-3.456-3.673-6.984-5.473-10.441-0.72-1.656-1.44-3.312-2.016-4.968a18.305,18.305,0,0,1-1.656-8.5,73.659,73.659,0,0,1,3.024-18.577A10.217,10.217,0,0,0,536.642,474.932Zm77.186,24.77a8.883,8.883,0,0,0,5.4-1.3,1.381,1.381,0,0,0,.72-1.729,10.018,10.018,0,0,0-1.728-3.384c-2.449-2.592-4.9-5.112-7.417-7.561A19.441,19.441,0,0,0,608,483.788a1.221,1.221,0,0,0-.72,0,0.631,0.631,0,0,0,.5.432,36.8,36.8,0,0,1,8.136,8.569,2.084,2.084,0,0,1,0,2.232,3.993,3.993,0,0,1-2.3,1.368,13.523,13.523,0,0,1-8.713-1.44,6.37,6.37,0,0,1-1.8-1.3,2.843,2.843,0,0,1-.864-2.016,11.917,11.917,0,0,1,.216-2.3c0.576-1.944,1.08-3.889,1.728-5.833,0.576-2.232,1.152-4.464,1.585-6.7a2.328,2.328,0,0,0-.937-2.737,5.214,5.214,0,0,0-6.12-.576,0.924,0.924,0,0,1-.72.288,2.22,2.22,0,0,1,.072-0.72c0.288-2.3.5-4.536,0.648-6.768a3.479,3.479,0,0,0-1.944-3.168,3.285,3.285,0,0,0-3.6.288,3.364,3.364,0,0,0-1.008,1.008,3.9,3.9,0,0,0,1.3.72,0.777,0.777,0,0,1,.721,1.008c-0.289,3.384-.721,6.7-1.081,10.009a2.184,2.184,0,0,1-1.08,1.8c-1.944,1.224-3.816,2.52-5.688,3.816a4.082,4.082,0,0,0-.576.936c0.36,0.072.648,0.144,1.08,0.216a0.544,0.544,0,0,0,.576-0.072c1.368-.576,2.736-1.152,4.032-1.656a0.957,0.957,0,0,1,.576-0.216v0.576l-1.44,4.753a0.961,0.961,0,0,1-1.008.648,7.391,7.391,0,0,0-2.52,0,3.164,3.164,0,0,0-1.3.864,6.837,6.837,0,0,0,1.224.72,1.1,1.1,0,0,0,.5.36,5.407,5.407,0,0,1,1.3.5l-1.152.576c-3.744,1.656-7.489,3.312-11.233,5.04a1.068,1.068,0,0,1-.5.072c0.072-.216.144-0.36,0.216-0.576a22.984,22.984,0,0,1,3.168-3.312c1.44-1.224,2.88-2.3,4.393-3.384a2.889,2.889,0,0,0,.216-1.08,4.724,4.724,0,0,0-5.833-1.873c-0.936.432-1.872,0.792-2.808,1.225-3.528,1.656-6.985,3.312-10.585,4.9a1.779,1.779,0,0,1-.648.288,0.778,0.778,0,0,0,.216-0.5,1.988,1.988,0,0,0-.576-0.432,1.479,1.479,0,0,0-.792,0,10.414,10.414,0,0,0-1.584,1.512,2.089,2.089,0,0,0-.144,1.728,1.757,1.757,0,0,0,1.3,1.152,1.239,1.239,0,0,0,.864-0.144c2.376-1.368,4.9-2.808,7.344-4.248,1.8-.936,3.673-1.8,5.545-2.736a4.155,4.155,0,0,1,3.24-1.08h0.576a3.131,3.131,0,0,1-.288.5c-1.008,1.08-2.016,2.16-3.024,3.312a3.115,3.115,0,0,1-3.456,1.08c-0.576-.144-0.792.072-0.72,0.72a22.7,22.7,0,0,1,.288,3.816,0.728,0.728,0,0,1-.576.792,87.061,87.061,0,0,1-7.921,3.673,1.641,1.641,0,0,1-.792.216,2.94,2.94,0,0,0-1.368-.072,2.542,2.542,0,0,0-1.08,1.224,0.777,0.777,0,0,0,0,.792,4.48,4.48,0,0,0,1.008,1.368,3.957,3.957,0,0,0,.648.5,1,1,0,0,0,.864.216,10.683,10.683,0,0,0,2.736-1.656,1.357,1.357,0,0,1,2.16.216c0.5,0.5,1.008,1.08,1.44,1.584l2.377,2.376a0.839,0.839,0,0,0,1.368-.144,44.686,44.686,0,0,0,1.008-4.464c0-.72.072-1.512,0.072-2.3a1.8,1.8,0,0,1,.576-1.3c1.728-.936,3.456-1.873,5.184-2.665a14.034,14.034,0,0,0,2.089-1.512c1.944-1.584,3.96-3.168,5.976-4.752,0.216-.144.432-0.216,0.648-0.36a7.472,7.472,0,0,0-.216.864,63.274,63.274,0,0,1-11.881,19.658,0.818,0.818,0,0,1-.216.576l0.576-.432c2.16-2.089,4.32-4.249,6.409-6.409a26.779,26.779,0,0,0,5.616-7.993c0.576-1.152,1.152-2.3,1.8-3.456,0.144-.576.432-0.648,0.792-0.144q1.728,1.3,3.673,2.592a2.4,2.4,0,0,0,1.8-.5,2.008,2.008,0,0,0,.072-1.584,7.324,7.324,0,0,0-3.673-3.96,1.29,1.29,0,0,1-.5-1.8c1.009-2.665,1.945-5.329,2.809-8.137a1.992,1.992,0,0,1,1.3-1.44,27.073,27.073,0,0,0,3.312-1.44c0.576-.36.864-0.144,0.792,0.576a39.71,39.71,0,0,1-2.376,9.577c-1.512,3.528-.792,6.48,2.232,8.928a19.84,19.84,0,0,0,5.689,3.385A15.889,15.889,0,0,0,613.828,499.7Zm-41.475,1.368a1.412,1.412,0,0,1-.36,1.44c-0.432.36-.864,0.72-1.225,1.008,0,0.072,0,.072-0.072,0a0.54,0.54,0,0,1-.36-0.072,5.959,5.959,0,0,0-1.08-.792c-1.008-.576-0.936-1.008.144-1.368a9.675,9.675,0,0,0,2.161-.864C572.281,500.062,572.569,500.278,572.353,501.07Zm24.338,15.265a0.265,0.265,0,0,1-.072.216h-3.1a0.364,0.364,0,0,1-.5-0.36,0.924,0.924,0,0,1,.288-0.72v-0.5q0.108-2.808,0-5.616a1.461,1.461,0,0,1,1.369-1.729c1.872-.5,3.744-0.936,5.544-1.44,0.864-.288.936-0.72,0.288-1.3a17.925,17.925,0,0,0-2.16-1.368,2.812,2.812,0,0,0-3.456.216,3.179,3.179,0,0,1-1.153.432,2.4,2.4,0,0,1-.432-0.216v-1.08a4.437,4.437,0,0,0-.072-1.944,2.482,2.482,0,0,0-1.224-1.584,4.185,4.185,0,0,0-1.8-.648,0.818,0.818,0,0,0-.648-0.144,1.373,1.373,0,0,0-.936.144,1.29,1.29,0,0,0-.288,1.008,4.059,4.059,0,0,1,.288.864c-0.216,2.016-.36,3.96-0.648,5.9a1.283,1.283,0,0,1-.72,1.152l-9.721,4.1a7.626,7.626,0,0,0-.864.72,1.981,1.981,0,0,0,1.08.576,9.3,9.3,0,0,0,3.456,0c2.017-.576,3.961-1.3,5.905-2.016,0.5-.288.72-0.144,0.576,0.432-0.144,1.224-.36,2.376-0.576,3.528a3.537,3.537,0,0,1-3.672,3.1,1.068,1.068,0,0,1-.5.072c-2.809.864-5.617,1.8-8.281,2.737a42.09,42.09,0,0,1-8.425,1.944,1.334,1.334,0,0,0-.576.5,0.641,0.641,0,0,0,.36.576,9.376,9.376,0,0,0,3.888,2.16,2.457,2.457,0,0,0,2.3-.5,0.482,0.482,0,0,1,.5-0.288c2.16-.936,4.248-1.8,6.408-2.592a50.808,50.808,0,0,1,17.642-2.737,11.4,11.4,0,0,1,2.736.36,18.8,18.8,0,0,0,2.808.433,23.517,23.517,0,0,1,6.409,1.224c0.936,0.288,1.872.576,2.808,0.792a3.445,3.445,0,0,0,2.736-.576,0.6,0.6,0,0,0,.288-0.936,4.985,4.985,0,0,0-2.232-2.161c-1.008-.432-1.944-0.864-2.952-1.224a6.537,6.537,0,0,0-1.656-.216,13.982,13.982,0,0,1-1.728-.144C602.883,517.127,599.787,516.767,596.691,516.335Zm-21.674-41.547a37.962,37.962,0,0,1,3.672-1.369,7.011,7.011,0,0,1,2.448.432c0,0.072.072,0.216,0.072,0.288a1.023,1.023,0,0,1-.144.433,36.6,36.6,0,0,1-3.1,2.736,57.816,57.816,0,0,1-4.968,3.6,2.887,2.887,0,0,0-1.08,1.008,1.617,1.617,0,0,0-.216,1.584,16.24,16.24,0,0,1-1.729-2.592,2.6,2.6,0,0,1,.072-1.944c0.937-.936,1.873-1.872,2.881-2.808l1.008-.792c-1.656,1.152-3.385,2.3-5.113,3.456a0.957,0.957,0,0,1-.5.216,0.622,0.622,0,0,1,.216-0.432,22.672,22.672,0,0,0,2.449-2.88,20.845,20.845,0,0,1,5.256-5.4,3.8,3.8,0,0,1,1.728-.792q4.212-.324,8.425-0.432a1.026,1.026,0,0,0,.864-0.432,0.859,0.859,0,0,0-.144-0.936,2.858,2.858,0,0,0-2.808-1.152,25.569,25.569,0,0,0-3.385.432q-0.972.216-.864-0.648a3.268,3.268,0,0,0-.576-1.656,24.654,24.654,0,0,0-3.816-3.385,2.706,2.706,0,0,0-3.1,0c-0.936.36-1.008,0.864-.072,1.441a5.951,5.951,0,0,0,.936.5,1.645,1.645,0,0,1,.864,2.16,10.2,10.2,0,0,1-.576,1.3,10.316,10.316,0,0,1-4.9,3.672,29.158,29.158,0,0,0-4.032,1.872,14.225,14.225,0,0,1-4.248,1.512c-0.072.072-.144,0.072-0.216,0.144a0.653,0.653,0,0,0,0,.721c2.16,1.584,4.248,1.512,6.12-.288a9.14,9.14,0,0,1,3.168-2.017c1.224-.5,2.449-0.936,3.529-1.44h0.288a0.433,0.433,0,0,1-.072.288c-2.16,2.232-4.249,4.537-6.265,6.841a1.367,1.367,0,0,0-.576,1.08,6.362,6.362,0,0,0,3.168,5.112c1.08,0.648,1.729.432,1.945-.792q0.864,2.052,3.024,1.08a0.251,0.251,0,0,1,.144-0.072,3.688,3.688,0,0,1,1.944-.648,2.194,2.194,0,0,0,1.872-.936,1.12,1.12,0,0,0,.432-0.576,0.547,0.547,0,0,0-.36-0.648c-0.5-.36-0.5-0.648.072-0.936,1.728-1.152,3.528-2.232,5.329-3.312a1.338,1.338,0,0,1,.936-0.5c1.08-.144,1.3-0.72.792-1.584a5.867,5.867,0,0,0-3.529-2.881,6.478,6.478,0,0,0-3.888.288A14.736,14.736,0,0,0,575.017,474.788Z" transform="translate(-474.469 -460.844)"/>
</svg>
